<?xml version="1.0" encoding="iso-8859-1"?>
<!-- Generator: Adobe Illustrator 19.0.0, SVG Export Plug-In . SVG Version: 6.00 Build 0)  -->
<svg version="1.1" id="Capa_1" xmlns="http://www.w3.org/2000/svg" xmlns:xlink="http://www.w3.org/1999/xlink" x="0px" y="0px"
	 viewBox="0 0 512 512" style="enable-background:new 0 0 512 512;" xml:space="preserve">
<g>
	<g>
		<path d="M184.108,237.811c-64.342,0-124.287-17.9-164.803-45.124c-0.43-0.29-0.859-0.58-1.279-0.87v55.517
			c8.125,7.766,18.409,15.241,30.532,22.037c36.738,20.588,86.14,32.401,135.551,32.401c19.229,0,38.098-1.449,56.127-4.258v-63.643
			C222.066,236.471,203.217,237.811,184.108,237.811z"/>
	</g>
</g>
<g>
	<g>
		<path d="M240.235,346.987v-19.169c-18.169,2.599-37.018,3.938-56.127,3.938c-64.462,0-124.507-17.959-165.023-45.283
			c-0.36-0.23-0.71-0.47-1.059-0.71v61.024c7.206,6.146,15.781,12.053,25.535,17.53c36.738,20.588,86.14,32.401,135.551,32.401
			c26.524,0,52.369-2.758,76.275-8.025C245.732,377.249,240.235,362.608,240.235,346.987z"/>
	</g>
</g>
<g>
	<g>
		<path d="M349.861,448.357l-1.019-0.55l-61.934-36.409c-32.741,9.974-69.729,15.301-107.797,15.301
			c-62.403,0-120.669-16.83-161.086-42.685v57.736c0,46.123,83.751,70.249,166.482,70.249c78.534,0,157.987-21.747,165.833-63.413
			C350.181,448.517,350.021,448.437,349.861,448.357z"/>
	</g>
</g>
<g>
	<g>
		<path d="M184.508,0C104.382,0,23.31,22.631,18.277,65.941c7.053,5.927,15.364,11.628,24.795,16.913
			c36.732,20.587,86.139,32.393,135.549,32.393c50.846,0,99.213-10.153,136.189-28.589c14.721-7.34,26.693-15.642,35.323-24.251
			C341.215,21.4,262.411,0,184.508,0z"/>
	</g>
</g>
<g>
	<g>
		<path d="M328.184,113.494c-41.046,20.468-94.165,31.741-149.562,31.741c-62.154,0-120.2-17.71-160.596-43.385v53.539
			c8.125,7.765,17.41,13.242,29.533,20.038c36.738,20.588,87.139,32.401,136.55,32.401c19.229,0,38.098-1.449,56.127-4.258v-17.2
			c0-12.673,8.485-23.786,20.668-27.134l90.077-26.325v-32.661C344.094,104.929,336.499,109.346,328.184,113.494z"/>
	</g>
</g>
<g>
	<g>
		<path d="M476.889,181.994l-93.049-27.197l-0.374-0.104c-2.819-0.746-5.802-0.746-8.621,0l-93.423,27.301
			c-10.072,2.77-17.086,11.955-17.086,22.423v132.757c0,20.167,11.089,38.358,28.978,47.598l60.789,35.73l0.841,0.459
			c7.58,3.826,15.896,5.739,24.211,5.739c8.315,0,16.631-1.913,24.211-5.739l0.428-0.216l61.203-35.973
			c17.888-9.241,28.978-27.431,28.978-47.598V204.417C493.975,193.949,486.961,184.766,476.889,181.994z M420.942,311.908
			c5.855,5.854,5.855,15.346,0,21.201c-2.927,2.927-6.764,4.391-10.6,4.391s-7.674-1.463-10.6-4.391l-20.918-20.918l-20.255,20.255
			c-2.927,2.927-6.764,4.391-10.6,4.391c-3.836,0-7.674-1.464-10.6-4.391c-5.855-5.854-5.855-15.346,0-21.201l20.255-20.255
			l-21.404-21.404c-5.855-5.854-5.855-15.346,0-21.201c5.854-5.854,15.346-5.856,21.201,0l21.404,21.403l22.065-22.065
			c5.854-5.854,15.346-5.854,21.201,0s5.855,15.346,0,21.201l-22.065,22.065L420.942,311.908z"/>
	</g>
</g>
<g>
</g>
<g>
</g>
<g>
</g>
<g>
</g>
<g>
</g>
<g>
</g>
<g>
</g>
<g>
</g>
<g>
</g>
<g>
</g>
<g>
</g>
<g>
</g>
<g>
</g>
<g>
</g>
<g>
</g>
</svg>
